<svg width="182" height="26" viewBox="0 0 182 26" fill="none" xmlns="http://www.w3.org/2000/svg">
<mask id="mask0_32_137" style="mask-type:alpha" maskUnits="userSpaceOnUse" x="0" y="4" width="14" height="17">
<path d="M0 4.94974H13.1138V20.2626H0V4.94974Z" fill="white"/>
</mask>
<g mask="url(#mask0_32_137)">
<path fill-rule="evenodd" clip-rule="evenodd" d="M8.98703 9.76275C8.82259 8.83166 8.50143 7.84718 6.44983 7.84718C4.4008 7.84718 4.13102 8.64023 4.13102 9.26921C4.13102 11.5663 13.1133 9.89818 13.1133 15.2568C13.1133 19.4942 9.06539 20.2626 6.82752 20.2626C3.56192 20.2626 0.0303966 19.114 -0.0775146 15.2308H3.80601C3.80601 16.4614 4.56138 17.3625 6.93672 17.3625C8.87912 17.3625 9.33646 16.4054 9.33646 15.8584C9.33646 13.4259 0.435064 15.2568 0.435064 9.81614C0.435064 7.6831 1.75569 4.94974 6.23401 4.94974C9.03842 4.94974 12.3849 5.65945 12.683 9.76275H8.98703Z" fill="#343534"/>
</g>
<path d="M14.5192 19.8788H18.2973V5.33165H14.5192V19.8788ZM14.5192 3.60882H18.2973V0.0550537H14.5192V3.60882Z" fill="#343534"/>
<path fill-rule="evenodd" clip-rule="evenodd" d="M40.9818 19.8784H37.2062V11.0454C37.2062 8.88635 36.262 8.17534 35.1559 8.17534C33.2675 8.17534 32.5917 9.43198 32.5917 11.1561V19.8784H28.8187V11.1288C28.8187 9.89818 28.8187 8.17534 26.5513 8.17534C24.772 8.17534 24.2055 9.43198 24.2055 11.0194V19.8784H20.4286V5.33129H24.0423V7.46302H24.0976C24.5819 6.5085 25.634 4.94974 28.1699 4.94974C30.2472 4.94974 31.1914 5.71284 32.1626 7.2742C32.6482 6.56189 33.6991 4.94974 35.9935 4.94974C38.7979 4.94974 40.9818 6.61658 40.9818 9.81614V19.8784Z" fill="#343534"/>
<path d="M50.1054 17.1164C52.5321 17.1164 53.2091 14.4364 53.2091 12.7136C53.2091 10.4191 52.3985 8.25868 49.9975 8.25868C47.4076 8.25868 46.7871 10.6092 46.7871 12.9324C46.7871 15.0927 47.7044 17.1164 50.1054 17.1164ZM46.7871 7.43698H46.8411C47.5425 6.28842 48.5972 4.94974 51.1306 4.94974C54.2857 4.94974 57.0914 7.40963 57.0914 12.4414C57.0914 16.4314 55.3121 20.2626 51.0496 20.2626C48.4071 20.2626 47.4603 18.8106 47.0043 18.0188H46.9503V25.5392H43.1721V5.33129H46.7871V7.43698Z" fill="#343534"/>
<path fill-rule="evenodd" clip-rule="evenodd" d="M58.7937 19.8784H62.5706V0.244843H58.7937V19.8784Z" fill="#343534"/>
<path d="M73.7406 11.1561C73.5235 8.80431 72.041 8.0933 70.827 8.0933C69.0452 8.0933 68.1036 9.24186 67.8877 11.1561H73.7406ZM77.4623 15.6136C76.4641 19.114 73.6057 20.2626 71.1508 20.2626C67.1041 20.2626 64.0029 18.2936 64.0029 12.3034C64.0029 10.5545 64.5952 4.94974 70.8823 4.94974C73.7137 4.94974 77.6254 6.31577 77.6254 12.961V13.6447H67.7785C67.8877 14.7372 68.1036 17.1997 71.1508 17.1997C72.2029 17.1997 73.2807 16.6515 73.58 15.6136H77.4623Z" fill="#343534"/>
<path fill-rule="evenodd" clip-rule="evenodd" d="M100.64 14.5745C100.505 16.0772 99.3452 20.2626 94.0845 20.2626C88.6902 20.2626 87.4492 16.0772 87.4492 13.0144C87.4492 8.31207 89.4726 4.94974 94.3273 4.94974C96.5921 4.94974 100.318 5.98761 100.668 10.5272H96.8375C96.6744 9.59736 96.1335 8.17534 94.5174 8.17534H94.3273C91.9532 8.17534 91.334 10.5818 91.334 12.3867C91.334 13.9728 91.388 17.1164 94.2463 17.1164C96.1618 17.1164 96.8079 15.2568 96.8079 14.5745H100.64Z" fill="#343534"/>
<path d="M108.628 8.17534C105.712 8.17534 105.175 10.7446 105.175 12.6055C105.175 14.4638 105.712 17.0344 108.628 17.0344C111.539 17.0344 112.08 14.4638 112.08 12.6055C112.08 10.7446 111.539 8.17534 108.628 8.17534ZM108.628 20.2626C104.769 20.2626 101.29 17.8561 101.29 12.6055C101.29 7.35624 104.769 4.94974 108.628 4.94974C112.485 4.94974 115.965 7.35624 115.965 12.6055C115.965 17.8561 112.485 20.2626 108.628 20.2626Z" fill="#343534"/>
<path fill-rule="evenodd" clip-rule="evenodd" d="M122.414 19.8784H118.639V8.06596H116.562V5.33129H118.639V4.15539C118.639 1.14856 120.258 0 122.847 0C123.953 0 124.465 0.0260444 124.79 0.0546933V3.14356H123.737C122.443 3.14356 122.414 3.55506 122.414 4.75832V5.33129H124.867V8.06596H122.414V19.8784Z" fill="#343534"/>
<path fill-rule="evenodd" clip-rule="evenodd" d="M131.373 19.8784H127.596V8.06596H125.519V5.33129H127.596V4.15539C127.596 1.14856 129.213 0 131.805 0C132.909 0 133.422 0.0260444 133.747 0.0546933V3.14356H132.694C131.4 3.14356 131.373 3.55506 131.373 4.75832V5.33129H133.827V8.06596H131.373V19.8784Z" fill="#343534"/>
<path d="M143.701 11.1561C143.485 8.80431 142.001 8.0933 140.787 8.0933C139.008 8.0933 138.063 9.24186 137.848 11.1561H143.701ZM147.425 15.6136C146.424 19.114 143.567 20.2626 141.111 20.2626C137.065 20.2626 133.964 18.2936 133.964 12.3034C133.964 10.5545 134.558 4.94974 140.84 4.94974C143.675 4.94974 147.587 6.31577 147.587 12.961V13.6447H137.74C137.848 14.7372 138.063 17.1997 141.111 17.1997C142.164 17.1997 143.242 16.6515 143.541 15.6136H147.425Z" fill="#343534"/>
<path d="M157.949 11.1561C157.733 8.80431 156.248 8.0933 155.035 8.0933C153.253 8.0933 152.31 9.24186 152.094 11.1561H157.949ZM161.669 15.6136C160.672 19.114 157.812 20.2626 155.357 20.2626C151.312 20.2626 148.211 18.2936 148.211 12.3034C148.211 10.5545 148.803 4.94974 155.089 4.94974C157.92 4.94974 161.832 6.31577 161.832 12.961V13.6447H151.988C152.094 14.7372 152.31 17.1997 155.357 17.1997C156.411 17.1997 157.49 16.6515 157.788 15.6136H161.669Z" fill="#343534"/>
<path fill-rule="evenodd" clip-rule="evenodd" d="M182 20.2938V0.681061L179.905 3.43135H175.715V0.681061L168.289 10.8162H175.082L170.599 20.2938" fill="#E5702A"/>
</svg>
