<svg width="40" height="41" viewBox="0 0 40 41" fill="none" xmlns="http://www.w3.org/2000/svg">
<mask id="mask0_1665_1120" style="mask-type:alpha" maskUnits="userSpaceOnUse" x="0" y="0" width="40" height="41">
<rect y="0.5" width="40" height="40" rx="20" fill="#E5702A"/>
</mask>
<g mask="url(#mask0_1665_1120)">
<rect y="0.5" width="40" height="40" rx="20" fill="#E5702A"/>
<path d="M17.3435 12.7136C17.1219 12.9355 16.9239 13.1735 16.7188 13.4068C18.7719 13.8567 20.7931 14.9099 22.5912 16.4152C23.6038 13.8935 25.5875 11.9649 28.2064 11.0735L29.8614 10.5101C26.7654 7.86979 21.3104 8.74607 17.3435 12.7136Z" fill="#FFAB79"/>
<path d="M30.8828 11.6483L28.6599 12.4051C26.2685 13.2195 24.4896 15.0417 23.7102 17.4103C25.6881 19.41 27.0372 21.8264 27.5742 24.3035C27.8151 24.0925 28.0602 23.8877 28.2891 23.6592C32.0511 19.8965 33.0339 14.8134 30.8828 11.6483Z" fill="#FFAB79"/>
<path d="M23.1255 29.8434C22.224 27.0998 19.905 25.1131 17.0734 24.5531C13.7849 23.9004 11.1547 21.5237 10.0745 18.3499L9.51111 16.6949C6.87083 19.7909 7.74777 25.3204 11.7147 29.288C14.1842 31.7574 17.261 33 19.9799 33C21.3996 33 22.713 32.6293 23.7993 31.8937L23.1255 29.8434Z" fill="#FFAB79"/>
<path d="M22.6603 18.3424C18.8983 14.5804 13.8146 13.5221 10.6494 15.6735L11.4061 17.8965C12.3255 20.5961 14.5497 22.6176 17.3469 23.1727C20.676 23.8317 23.4031 26.1785 24.4625 29.4037L24.9455 30.873C27.5892 27.7777 26.6287 22.3115 22.6603 18.3424Z" fill="#FFAB79"/>
</g>
</svg>
