<svg width="40" height="41" viewBox="0 0 40 41" fill="none" xmlns="http://www.w3.org/2000/svg">
<mask id="mask0_621_652" style="mask-type:alpha" maskUnits="userSpaceOnUse" x="0" y="0" width="40" height="41">
<rect y="0.5" width="40" height="40" rx="20" fill="#E5702A"/>
</mask>
<g mask="url(#mask0_621_652)">
<rect y="0.5" width="40" height="40" rx="20" fill="#E5702A"/>
<path d="M32.953 15.0146C32.9931 14.993 33.0418 14.9955 33.0794 15.021C33.171 15.0719 33.6107 15.4098 34.015 17.183C33.5646 17.2017 32.9809 17.2413 32.3013 17.3292C32.3082 17.1294 32.3098 16.9345 32.3104 16.7529C32.3131 15.6433 32.3671 15.2379 32.953 15.0146Z" fill="#FFAB79"/>
<path d="M31.1384 18.8372C31.193 18.6779 31.3309 18.5615 31.4972 18.5347C31.5963 18.5143 31.6943 18.4998 31.803 18.4811C32.7381 18.3231 33.6844 18.2402 34.6328 18.2331H34.6681C34.7989 18.2242 34.9144 18.3176 34.9332 18.4474C35.0566 19.5133 35.0085 20.5921 34.7907 21.6429C34.5886 22.407 34.2751 23.1372 33.8605 23.8102C33.0495 22.3115 31.9351 20.9983 30.5884 19.9543C30.82 19.6078 31.0049 19.2322 31.1384 18.8372V18.8372Z" fill="#FFAB79"/>
<path d="M25.9683 21.1192L28.6529 20.0936C31.5196 21.2209 33.2585 24.8984 33.5798 25.5882C33.2837 26.1001 32.3304 27.3924 29.8798 28.3274C29.04 28.658 28.1549 28.8593 27.2546 28.9245H26.5483C26.1745 28.9073 25.8046 28.8407 25.4483 28.7264C25.4178 28.5952 25.3765 28.4152 25.3353 28.1989C25.0804 26.8724 24.6353 23.5387 25.9683 21.1192V21.1192Z" fill="#FFAB79"/>
<path d="M24.14 27.5322C23.4192 27.2938 22.7409 26.9422 22.1307 26.4905C21.3323 25.8223 20.6527 25.0238 20.1208 24.1288C20.0572 23.9921 20.0973 23.8294 20.2172 23.7379C20.2242 23.7315 20.2311 23.725 20.237 23.7186C20.9754 23.0825 21.7616 22.504 22.5886 21.9883C22.6737 21.9348 22.7589 21.8775 22.8622 21.8175C22.987 21.7363 23.1469 21.7328 23.2751 21.8084C23.6104 22.0209 23.9736 22.1858 24.3542 22.2984C23.9362 24.0115 23.8634 25.7906 24.14 27.5322V27.5322Z" fill="#FFAB79"/>
<path d="M19.5048 20.2103C19.5216 20.1537 19.5653 20.109 19.6216 20.0909C20.1892 19.8767 20.449 20.1327 21.1104 20.9804C21.2239 21.1256 21.3455 21.2809 21.4761 21.4367C20.8924 21.8282 20.412 22.1913 20.0489 22.4837C19.492 21.2423 19.3924 20.5006 19.5048 20.2103V20.2103Z" fill="#FFAB79"/>
<path d="M5.00439 21.1432C5.00439 19.0316 5.31929 16.6073 7.7731 16.6073C8.28765 16.6047 8.7993 16.6844 9.28866 16.8434V17.9943C8.81259 17.7796 8.29529 17.6718 7.7731 17.6783C6.20506 17.6783 6.07546 19.3176 6.07546 21.1432C6.07546 22.9978 6.71007 24.1047 7.7731 24.1047C8.28958 24.0994 8.80164 24.0089 9.28866 23.837V24.1047C9.29094 24.3846 9.31349 24.664 9.35614 24.9407C8.84201 25.0925 8.30917 25.1717 7.7731 25.1758C6.03958 25.1758 5.00439 23.6683 5.00439 21.1432Z" fill="#FFAB79"/>
<path d="M10.4846 25.1871C10.4014 24.8323 10.3595 24.4691 10.3599 24.1047V15.5362C10.3599 15.2404 10.5996 15.0007 10.8954 15.0007H22.6771C22.9729 15.0007 23.2127 15.2404 23.2127 15.5362V20.7014C22.932 20.6753 22.6498 20.7311 22.4003 20.8621C22.2455 20.6854 22.0966 20.5033 21.9547 20.3212C21.3479 19.5436 20.5944 18.5738 19.2406 19.0895C18.9012 19.2147 18.6331 19.4816 18.5064 19.8205C18.2274 20.5397 18.4705 21.6729 19.2342 23.2645C18.9543 23.6968 18.9449 24.2507 19.2101 24.6922C19.8095 25.696 20.5753 26.5904 21.4748 27.3372C21.5686 27.4095 21.6655 27.4754 21.7624 27.5418C20.8658 28.4294 19.6545 28.9264 18.3929 28.9246H15.1797C12.9319 28.9338 10.9796 27.3797 10.4846 25.1871V25.1871Z" fill="#FFAB79"/>
</g>
</svg>
