<svg width="40" height="41" viewBox="0 0 40 41" fill="none" xmlns="http://www.w3.org/2000/svg">
<mask id="mask0_621_620" style="mask-type:alpha" maskUnits="userSpaceOnUse" x="0" y="0" width="40" height="41">
<rect y="0.5" width="40" height="40" rx="20" fill="#E5702A"/>
</mask>
<g mask="url(#mask0_621_620)">
<rect y="0.5" width="40" height="40" rx="20" fill="#E5702A"/>
<path d="M28.1866 13.1164H12.8393C11.4888 13.1164 10.3838 14.2214 10.3838 15.572V22.5826C10.3838 27.285 14.0057 31.398 18.7081 31.5331C23.5701 31.6804 27.5727 27.7761 27.5727 22.9386V21.7109H28.1866C30.5562 21.7109 32.4838 19.7833 32.4838 17.4136C32.4838 15.044 30.5562 13.1164 28.1866 13.1164ZM25.1171 15.572V19.2553H12.8393V15.572H25.1171ZM28.1866 19.2553H27.5727V15.572H28.1866C29.2056 15.572 30.0282 16.3946 30.0282 17.4136C30.0282 18.4327 29.2056 19.2553 28.1866 19.2553Z" fill="#FFAB79"/>
</g>
</svg>
