<svg width="40" height="41" viewBox="0 0 40 41" fill="none" xmlns="http://www.w3.org/2000/svg">
<mask id="mask0_1581_133" style="mask-type:alpha" maskUnits="userSpaceOnUse" x="0" y="0" width="40" height="41">
<rect y="0.5" width="40" height="40" rx="20" fill="#E5702A"/>
</mask>
<g mask="url(#mask0_1581_133)">
<rect y="0.5" width="40" height="40" rx="20" fill="#E5702A"/>
<path d="M21.3536 30.1307C20.5936 30.8207 19.4236 30.8207 18.6636 30.1207L18.5536 30.0207C13.3036 25.2707 9.87357 22.1607 10.0036 18.2807C10.0636 16.5807 10.9336 14.9507 12.3436 13.9907C14.9836 12.1907 18.2436 13.0307 20.0036 15.0907C21.7636 13.0307 25.0236 12.1807 27.6636 13.9907C29.0736 14.9507 29.9436 16.5807 30.0036 18.2807C30.1436 22.1607 26.7036 25.2707 21.4536 30.0407L21.3536 30.1307Z" fill="#FFAB79"/>
</g>
</svg>
