<svg width="40" height="41" viewBox="0 0 40 41" fill="none" xmlns="http://www.w3.org/2000/svg">
<mask id="mask0_621_637" style="mask-type:alpha" maskUnits="userSpaceOnUse" x="0" y="0" width="40" height="41">
<rect y="0.5" width="40" height="40" rx="20" fill="#E5702A"/>
</mask>
<g mask="url(#mask0_621_637)">
<rect y="0.5" width="40" height="40" rx="20" fill="#E5702A"/>
<path d="M28.6177 26.7724C28.5006 26.8414 28.3773 26.8983 28.25 26.9433V33C28.7479 32.8603 29.5121 32.5824 30.2202 32.0003C31.4012 31.0295 32 29.6054 32 27.7676V23.3477C31.7333 23.7835 31.43 24.2044 31.0907 24.6078C29.9669 25.9434 28.8335 26.6453 28.6177 26.7724Z" fill="#FFAB79"/>
<path d="M24.7343 27.0645C24.7343 27.5033 24.6332 27.9189 24.4531 28.2894L26.8437 29.122V26.9439L24.7343 26.2092V27.0645Z" fill="#FFAB79"/>
<path d="M19.1094 24.2503L8 20.3813V22.5594L19.1094 26.4284V24.2503Z" fill="#FFAB79"/>
<path d="M21.9219 29.877C20.6878 29.877 19.6376 29.0777 19.2597 27.9699L8 24.0485V25.8926C8 26.1918 8.18933 26.4581 8.47184 26.5565L26.8438 32.9547V30.611L23.4446 29.4273C23.0053 29.7113 22.4827 29.877 21.9219 29.877Z" fill="#FFAB79"/>
<path d="M16.0625 14.8593C16.0625 16.5394 17.4293 17.9062 19.1094 17.9062C20.7894 17.9062 22.1562 16.5394 22.1562 14.8593C22.1562 13.4023 21.128 12.1816 19.7592 11.883C19.5625 10.7197 18.8288 9.7144 17.7467 9.17332L17.5488 9.07436C17.2016 8.90074 16.7792 9.0415 16.6055 9.3888C16.4318 9.7361 16.5725 10.1585 16.9199 10.3321L17.1178 10.4311C17.7277 10.736 18.16 11.2775 18.3282 11.9144C17.0255 12.2603 16.0625 13.4493 16.0625 14.8593Z" fill="#FFAB79"/>
<path d="M32 18.3926C32 18.1984 31.9535 13.6107 27.9038 11.2243C27.7255 11.1192 27.51 11.0981 27.3146 11.1664C26.7237 11.3733 25.0807 11.9455 22.9881 12.6739C23.3535 13.3199 23.5625 14.0657 23.5625 14.8594C23.5625 17.3148 21.5648 19.3125 19.1094 19.3125C16.8905 19.3125 15.0455 17.6811 14.7107 15.5548C11.8349 16.5558 9.38867 17.4077 8.47086 17.7289C8.18863 17.8277 7.99977 18.0941 8 18.3932C8.00023 18.6921 8.18952 18.9583 8.47184 19.0566L20.5156 23.2509V27.0644C20.5156 27.8411 21.1452 28.4707 21.9219 28.4707C22.6985 28.4707 23.3281 27.8411 23.3281 27.0644V24.2304L27.3156 25.619C27.3908 25.6453 27.4689 25.6582 27.5468 25.6582C27.671 25.6582 27.7945 25.6253 27.9038 25.5608C28.0711 25.4623 32 23.0929 32 18.3926ZM24.5 18.8614C24.1117 18.8614 23.7969 18.5465 23.7969 18.1582C23.7969 17.7699 24.1117 17.4551 24.5 17.4551C24.8883 17.4551 25.2031 17.7699 25.2031 18.1582C25.2031 18.5465 24.8883 18.8614 24.5 18.8614ZM25.9062 22.1426C25.5179 22.1426 25.2031 21.8278 25.2031 21.4395C25.2031 21.0512 25.5179 20.7364 25.9062 20.7364C26.2946 20.7364 26.6094 21.0512 26.6094 21.4395C26.6094 21.8278 26.2946 22.1426 25.9062 22.1426ZM27.3125 16.0489C26.9242 16.0489 26.6094 15.734 26.6094 15.3457C26.6094 14.9574 26.9242 14.6426 27.3125 14.6426C27.7008 14.6426 28.0156 14.9574 28.0156 15.3457C28.0156 15.734 27.7008 16.0489 27.3125 16.0489ZM28.25 19.3301C27.8617 19.3301 27.5469 19.0153 27.5469 18.627C27.5469 18.2387 27.8617 17.9239 28.25 17.9239C28.6383 17.9239 28.9531 18.2387 28.9531 18.627C28.9531 19.0153 28.6383 19.3301 28.25 19.3301Z" fill="#FFAB79"/>
</g>
</svg>
