<svg width="40" height="41" viewBox="0 0 40 41" fill="none" xmlns="http://www.w3.org/2000/svg">
<mask id="mask0_621_716" style="mask-type:alpha" maskUnits="userSpaceOnUse" x="0" y="0" width="40" height="41">
<rect y="0.5" width="40" height="40" rx="20" fill="#E5702A"/>
</mask>
<g mask="url(#mask0_621_716)">
<rect y="0.5" width="40" height="40" rx="20" fill="#E5702A"/>
<path d="M19.6718 32.0527C18.9329 32.0527 18.21 31.8841 17.5546 31.57C17.1418 31.8038 16.7124 32.0106 16.269 32.1885C17.3068 32.7186 18.4674 33 19.6718 33C20.8762 33 22.0368 32.7186 23.0744 32.1886C22.6311 32.0107 22.2018 31.8038 21.7889 31.57C21.1336 31.8841 20.4107 32.0527 19.6718 32.0527Z" fill="#FFAB79"/>
<path d="M16.0266 12.1651C17.0482 11.3481 18.3247 10.8887 19.6723 10.8887C21.0173 10.8887 22.2916 11.3464 23.3121 12.1605C24.1047 11.8655 24.9362 11.6643 25.7949 11.5628L26.0013 11.5384C25.3572 10.842 24.4373 10.4121 23.4223 10.4121C23.2006 10.4121 22.9795 10.4337 22.7608 10.4765C22.0087 9.54333 20.8884 9 19.6723 9C18.4562 9 17.3359 9.54333 16.5837 10.4765C16.3651 10.4337 16.1439 10.4121 15.9223 10.4121C14.9073 10.4121 13.9873 10.842 13.3433 11.5384L13.5496 11.5628C14.3951 11.6626 15.2285 11.8668 16.0266 12.1651V12.1651Z" fill="#FFAB79"/>
<path d="M20.3355 30.5812C20.1064 30.396 19.885 30.2012 19.6717 29.9976C19.4584 30.2012 19.2373 30.3961 19.0083 30.5812C19.2256 30.6236 19.4476 30.6465 19.6718 30.6465C19.8961 30.6465 20.1181 30.6236 20.3355 30.5812V30.5812Z" fill="#FFAB79"/>
<path d="M17.5132 12.8549C17.7342 12.9788 17.9514 13.1097 18.1628 13.2493C18.6982 13.6026 19.2016 14.0065 19.6665 14.4516C19.6721 14.4462 19.6777 14.4406 19.6833 14.4352C20.3373 13.8129 21.0552 13.2831 21.8236 12.851C21.1756 12.4913 20.4387 12.295 19.6718 12.295C18.9021 12.295 18.1628 12.4927 17.5132 12.8549Z" fill="#FFAB79"/>
<path d="M17.8634 27.7299C16.5525 25.5297 16.0694 22.9266 16.5031 20.4004C16.8161 18.5774 17.5734 16.9026 18.7148 15.4869C18.3053 15.0925 17.8612 14.735 17.3884 14.4229C16.1922 13.6335 14.8076 13.1274 13.3842 12.9593L11.7856 12.7705C11.5627 12.7441 11.3407 12.8258 11.188 12.9902C11.0352 13.1547 10.9702 13.3821 11.0128 13.6025L14.2941 30.5478C14.3326 30.7466 14.4549 30.9191 14.6298 31.0213C14.7385 31.0848 14.8611 31.1173 14.9844 31.1173C15.0593 31.1173 15.1345 31.1053 15.2071 31.0811L15.2373 31.071C16.5484 30.6321 17.7357 29.9078 18.7205 28.9622C18.408 28.5737 18.1211 28.1625 17.8634 27.7299V27.7299ZM14.75 24.2812C14.3617 24.2812 14.0469 23.9664 14.0469 23.5781C14.0469 23.1898 14.3617 22.875 14.75 22.875C15.1383 22.875 15.4531 23.1898 15.4531 23.5781C15.4531 23.9664 15.1383 24.2812 14.75 24.2812ZM15.2187 18.1875C14.8304 18.1875 14.5156 17.8727 14.5156 17.4844C14.5156 17.0961 14.8304 16.7812 15.2187 16.7812C15.607 16.7812 15.9219 17.0961 15.9219 17.4844C15.9219 17.8727 15.607 18.1875 15.2187 18.1875Z" fill="#FFAB79"/>
<path d="M28.1555 12.9902C28.0027 12.8257 27.7807 12.7441 27.5578 12.7704L25.9592 12.9593C23.9533 13.1963 22.1183 14.0588 20.6525 15.4538C19.1874 16.8482 18.2316 18.641 17.8887 20.6384C17.5117 22.8346 17.9316 25.0975 19.0711 27.0102C20.2111 28.9235 21.9992 30.3657 24.1061 31.0709C24.1063 31.071 24.1064 31.071 24.1066 31.0711L24.1364 31.081C24.209 31.1053 24.2841 31.1172 24.3591 31.1172C24.4824 31.1172 24.6049 31.0847 24.7137 31.0212C24.8886 30.919 25.0109 30.7465 25.0494 30.5477L28.3306 13.6024C28.3733 13.3821 28.3082 13.1546 28.1555 12.9902V12.9902ZM21.0778 19.8281C21.0778 19.4398 21.3926 19.125 21.7809 19.125C22.1692 19.125 22.484 19.4398 22.484 19.8281C22.484 20.2164 22.1692 20.5313 21.7809 20.5313C21.3926 20.5313 21.0778 20.2164 21.0778 19.8281ZM22.7184 24.75C22.3301 24.75 22.0153 24.4352 22.0153 24.0469C22.0153 23.6586 22.3301 23.3438 22.7184 23.3438C23.1067 23.3438 23.4216 23.6586 23.4216 24.0469C23.4216 24.4352 23.1067 24.75 22.7184 24.75ZM24.3591 17.7187C23.9707 17.7187 23.6559 17.4039 23.6559 17.0156C23.6559 16.6273 23.9707 16.3125 24.3591 16.3125C24.7474 16.3125 25.0622 16.6273 25.0622 17.0156C25.0622 17.4039 24.7474 17.7187 24.3591 17.7187Z" fill="#FFAB79"/>
</g>
</svg>
