<svg width="40" height="41" viewBox="0 0 40 41" fill="none" xmlns="http://www.w3.org/2000/svg">
<mask id="mask0_621_727" style="mask-type:alpha" maskUnits="userSpaceOnUse" x="0" y="0" width="40" height="41">
<rect y="0.5" width="40" height="40" rx="20" fill="#E5702A"/>
</mask>
<g mask="url(#mask0_621_727)">
<rect y="0.5" width="40" height="40" rx="20" fill="#E5702A"/>
<path d="M32.8182 22.8701H7.77922C7.53289 22.8701 7.3011 22.9866 7.15408 23.1842C7.00702 23.3819 6.96208 23.6374 7.03289 23.8733L7.59174 25.7362C7.93138 26.8682 8.61206 27.8395 9.56026 28.5449C10.5085 29.2504 11.6344 29.6234 12.8163 29.6234H27.7811C28.963 29.6234 30.0889 29.2504 31.0371 28.5449C31.9854 27.8395 32.666 26.8682 33.0057 25.7362L33.5646 23.8733C33.6353 23.6374 33.5904 23.3819 33.4434 23.1842C33.2963 22.9866 33.0645 22.8701 32.8182 22.8701Z" fill="#FFAB79"/>
<path d="M12.2466 31.1818V32.2208C12.2466 32.6511 12.5955 33 13.0258 33H27.5713C28.0016 33 28.3505 32.6511 28.3505 32.2208V31.1818H12.2466Z" fill="#FFAB79"/>
<path d="M21.9044 21.3117C22.0081 20.9485 22.0649 20.5653 22.0649 20.1688C22.0649 17.8736 20.2042 16.013 17.909 16.013C16.8062 16.013 15.8043 16.4431 15.0605 17.1443L19.228 21.3117H21.9044Z" fill="#FFAB79"/>
<path d="M12.1903 21.3117V19.138L10.0166 21.3117H12.1903Z" fill="#FFAB79"/>
<path d="M11.0879 18.0361H7C7.13356 19.0645 7.53262 20.0649 8.19714 20.9268L11.0879 18.0361Z" fill="#FFAB79"/>
<path d="M12.1901 16.4776L9.30426 13.5918C8.96582 13.2533 8.40753 13.2991 8.12306 13.684C7.50265 14.5235 7.12847 15.4876 7 16.4776H12.1901Z" fill="#FFAB79"/>
<path d="M13.7485 18.0361V21.3117H17.0242L13.7485 18.0361Z" fill="#FFAB79"/>
<path d="M33.5976 16.013C33.5976 14.1084 32.2238 12.5186 30.4152 12.1824C30.079 10.3738 28.4891 9 26.5846 9C24.68 9 23.0902 10.3738 22.754 12.1824C21.3587 12.4418 20.2229 13.4476 19.7764 14.7681C22.0131 15.5435 23.6235 17.6715 23.6235 20.1688C23.6235 20.5526 23.5841 20.9354 23.5073 21.3117H25.8054V18.5079L23.6838 17.0935C23.3257 16.8548 23.229 16.371 23.4677 16.0129C23.7064 15.6549 24.1902 15.5581 24.5483 15.7968L25.8054 16.635V13.4376C25.8054 13.018 26.1278 12.657 26.5469 12.6372C26.9944 12.6162 27.3638 12.9727 27.3638 13.4156V16.635L28.6209 15.7969C28.979 15.5582 29.4628 15.6549 29.7015 16.013C29.9402 16.3711 29.8434 16.8549 29.4854 17.0936L27.3638 18.5079V21.3117H32.3597C32.4916 20.9465 32.5586 20.5636 32.5586 20.1688C32.5586 19.7315 32.4741 19.3039 32.3109 18.9039C33.127 18.173 33.5976 17.1358 33.5976 16.013V16.013Z" fill="#FFAB79"/>
</g>
</svg>
