<svg width="19" height="19" viewBox="0 0 19 19" fill="none" xmlns="http://www.w3.org/2000/svg">
<path d="M17.0301 3.89L17.7801 3.14C18.1601 2.76 18.1701 2.13 17.7801 1.74L17.7701 1.73C17.3801 1.34 16.7601 1.35 16.3701 1.73L15.6201 2.48C14.0701 1.24 12.1201 0.5 10.0001 0.5C5.2001 0.5 1.1201 4.46 1.0001 9.26C0.8701 14.34 4.9401 18.5 10.0001 18.5C14.9801 18.5 19.0001 14.47 19.0001 9.5C19.0001 7.38 18.2601 5.43 17.0301 3.89ZM11.0001 9.5C11.0001 10.05 10.5501 10.5 10.0001 10.5C9.4501 10.5 9.0001 10.05 9.0001 9.5V5.5C9.0001 4.95 9.4501 4.5 10.0001 4.5C10.5501 4.5 11.0001 4.95 11.0001 5.5V9.5Z" fill="#E52A2A"/>
</svg>
